<svg width="16" height="18" viewBox="0 0 16 18" fill="none" xmlns="http://www.w3.org/2000/svg">
<path opacity="0.5" fill-rule="evenodd" clip-rule="evenodd" d="M5.47806 1.38347C5.27109 1.50305 5.06317 1.62318 4.85372 1.74383C4.87113 1.76313 4.88447 1.77956 4.89569 1.7934C4.91502 1.81722 4.9281 1.83333 4.94492 1.84306L5.42788 2.12251L5.42793 2.12254L5.42794 2.12255C6.2347 2.58959 7.04143 3.05662 7.85571 3.51031C7.94534 3.5602 8.12518 3.5216 8.22878 3.46344C9.02652 3.01611 9.81845 2.55844 10.6103 2.10082L10.6104 2.10074L10.9251 1.91893C10.9746 1.89029 11.0199 1.85435 11.0673 1.81673L11.0673 1.81672L11.0674 1.81661C11.0899 1.79874 11.1129 1.78049 11.1371 1.76246C11.1192 1.74754 11.1057 1.73569 11.0948 1.72611L11.0948 1.72609C11.0768 1.71021 11.0658 1.70054 11.0533 1.69337L10.8643 1.58437C10.2645 1.23858 9.66464 0.89277 9.064 0.548466C8.95988 0.488784 8.85548 0.415323 8.75098 0.34179C8.50725 0.170281 8.26296 -0.00161864 8.0203 1.15032e-05C7.76077 0.00178307 7.50073 0.176782 7.24291 0.350293C7.14123 0.418719 7.0399 0.486913 6.93908 0.544161C6.45246 0.820474 5.96795 1.10041 5.47806 1.38347ZM1.20161 3.84085C0.984807 3.96571 0.765749 4.09186 0.543744 4.21951C0.758241 4.34288 0.970633 4.4653 1.18143 4.5868L1.18352 4.588L1.184 4.58828C2.01133 5.06513 2.81419 5.52787 3.62366 5.97893C3.70394 6.02368 3.87257 5.96813 3.97298 5.91153C4.80329 5.44333 5.62885 4.96672 6.45435 4.49015L6.45438 4.49013L6.45442 4.49011L6.45445 4.49009L6.45463 4.48999L6.70188 4.34726C6.74434 4.32272 6.78272 4.29122 6.8271 4.25478L6.82713 4.25476C6.84989 4.23607 6.87422 4.21609 6.9015 4.19509C6.69342 4.07563 6.48663 3.95673 6.2808 3.83838L6.27929 3.83751L6.27852 3.83707L6.27851 3.83706C5.47671 3.37603 4.68953 2.92341 3.89781 2.47873C3.81648 2.43307 3.66401 2.4342 3.58239 2.48014C2.79647 2.92239 2.01501 3.37242 1.20177 3.84076L1.20164 3.84083L1.20163 3.84084L1.20161 3.84085ZM11.1999 6.66651C10.9786 6.79359 10.7599 6.91929 10.5434 7.04381L10.5433 7.04385L10.5432 7.04393C9.73318 7.50972 8.95205 7.95889 8.1666 8.40059C8.08349 8.44732 7.9306 8.45536 7.8504 8.41033C7.0499 7.96093 6.25411 7.50326 5.43585 7.03266L5.43542 7.03242C5.22552 6.9117 5.01415 6.79014 4.80083 6.66764L5.22993 6.41949L5.23022 6.41933L5.23098 6.41889C5.54172 6.23913 5.8411 6.06595 6.14082 5.89334C6.2614 5.82389 6.38186 5.75422 6.50231 5.68456L6.50238 5.68452L6.50244 5.68448L6.50251 5.68445L6.50257 5.68441L6.50264 5.68437L6.50271 5.68433L6.50277 5.6843C6.9226 5.4415 7.3424 5.19871 7.76729 4.96504C7.86756 4.90992 8.03534 4.86002 8.11697 4.90547C8.92392 5.35542 9.7245 5.8167 10.5498 6.2922C10.7646 6.41599 10.9811 6.54074 11.1999 6.66651ZM8.5319 12.4023L8.53209 13.0979C8.75656 12.9691 8.9783 12.8421 9.19777 12.7165L9.19785 12.7164C10.0188 12.2464 10.8081 11.7946 11.59 11.3304C11.6785 11.2779 11.7296 11.0973 11.7309 10.9755C11.7405 10.0831 11.7387 9.19051 11.7368 8.29799L11.736 7.90818C11.7359 7.85098 11.7287 7.79376 11.7198 7.72401L11.7198 7.72399L11.7198 7.72394L11.7198 7.72386C11.7151 7.687 11.7099 7.64665 11.7052 7.60096L11.1369 7.9266C10.3003 8.40584 9.48466 8.87312 8.67242 9.34633C8.60541 9.38529 8.53854 9.49115 8.53797 9.56639C8.53114 10.497 8.53151 11.4277 8.5319 12.4023ZM6.69782 12.648C6.94035 12.7916 7.18471 12.9364 7.43358 13.0788C7.43943 13.0462 7.44548 13.0183 7.45087 12.9934L7.45087 12.9934C7.46077 12.9478 7.46842 12.9125 7.46847 12.8773L7.46973 12.3259C7.47202 11.4278 7.47431 10.5298 7.45989 9.63199C7.45804 9.51631 7.33799 9.35991 7.22906 9.29541C6.46456 8.84216 5.69267 8.40124 4.92083 7.96036L4.92062 7.96024L4.92061 7.96024L4.53399 7.73932C4.485 7.71129 4.43171 7.69067 4.36817 7.66609L4.36817 7.66609C4.33523 7.65335 4.29954 7.63954 4.26027 7.62308C4.26027 7.91167 4.26487 8.19625 4.26943 8.47781C4.27988 9.12411 4.29008 9.75446 4.24374 10.3807C4.19453 11.0463 4.41209 11.4202 5.01266 11.7115C5.58668 11.99 6.13736 12.3161 6.69778 12.648L6.69782 12.648ZM8.56076 17.9483C8.55683 17.9165 8.55227 17.8866 8.54792 17.8582C8.53913 17.8007 8.53119 17.7488 8.53104 17.6969C8.53014 17.3643 8.53019 17.0317 8.53024 16.6991V16.6988C8.53033 16.0099 8.53043 15.321 8.52211 14.6322C8.51934 14.4019 8.59657 14.2765 8.79924 14.1635C9.41202 13.8219 10.0195 13.4709 10.627 13.1198L10.627 13.1198L10.6271 13.1198L10.6271 13.1198L10.6271 13.1197L10.6272 13.1197L10.6272 13.1197L10.6273 13.1197L10.6273 13.1197L10.6273 13.1196L10.6274 13.1196L10.6275 13.1195L10.6276 13.1195L10.6276 13.1195L10.6277 13.1194L10.6278 13.1194L10.6279 13.1193L10.628 13.1193L10.628 13.1192C10.8968 12.9639 11.1657 12.8086 11.435 12.654C11.4861 12.6247 11.54 12.6 11.6094 12.5682L11.6094 12.5682L11.6095 12.5682C11.6468 12.551 11.6887 12.5318 11.7371 12.5087V13.8365C11.7371 14.0109 11.7377 14.1852 11.7383 14.3596V14.3596V14.3596V14.3596V14.3597V14.3597V14.3597V14.3597V14.3597V14.3597C11.74 14.8665 11.7418 15.3732 11.7289 15.8796C11.7257 16.0055 11.65 16.1847 11.5503 16.2444C10.7795 16.7064 10.0005 17.1548 9.22139 17.6031C9.0515 17.7009 8.88161 17.7987 8.7118 17.8966C8.68725 17.9107 8.65917 17.9188 8.62412 17.9289L8.6241 17.9289L8.62408 17.9289C8.60518 17.9344 8.58425 17.9404 8.56076 17.9483ZM6.83505 17.6365L7.46519 18L7.46545 17.282V17.2819C7.46598 16.3112 7.46649 15.3875 7.45782 14.4638C7.45704 14.3836 7.36861 14.2742 7.2911 14.229C6.32762 13.6671 5.35879 13.1142 4.39002 12.5612L4.38052 12.5558C4.36441 12.5467 4.34188 12.5486 4.31249 12.5511L4.31246 12.5511C4.29633 12.5525 4.27812 12.5541 4.25777 12.5541L4.25752 13.2431C4.25704 14.1548 4.25655 15.0637 4.2638 15.9726C4.26444 16.0584 4.32897 16.1809 4.40116 16.2234C5.19717 16.692 5.99742 17.1535 6.83505 17.6365ZM0.6084 5.48204L0.00424071 5.13505C0.00424071 5.3879 0.00401374 5.63766 0.00378901 5.88494C0.00291867 6.84264 0.00208199 7.76328 0.0145941 8.68367C0.0158705 8.77436 0.148124 8.89039 0.246907 8.94833C0.971156 9.373 1.69975 9.79034 2.42831 10.2077L2.81582 10.4297C2.88623 10.47 2.95849 10.507 3.04492 10.5513L3.04501 10.5514L3.04503 10.5514L3.04504 10.5514C3.09055 10.5747 3.13998 10.6 3.19514 10.6289L3.19532 9.95589C3.19573 8.98075 3.19612 8.03734 3.18861 7.09399C3.18805 7.0227 3.10926 6.92538 3.04033 6.88522C2.24433 6.42138 1.44527 5.96257 0.60871 5.48222L0.608589 5.48215L0.608575 5.48214L0.6084 5.48204ZM12.8015 10.6471L12.8013 9.94374C12.8009 8.97153 12.8006 8.04359 12.8073 7.1157C12.8078 7.04117 12.8732 6.93622 12.9392 6.89768C13.7403 6.42943 14.5447 5.96692 15.3841 5.48434L15.3842 5.48427L15.9945 5.13326V5.98597C15.9945 6.18899 15.9947 6.39201 15.9949 6.59504C15.9955 7.24889 15.9961 7.90273 15.99 8.55653C15.989 8.66091 15.9589 8.81872 15.8879 8.86064C15.0848 9.33563 14.2756 9.80036 13.4292 10.2864L13.4289 10.2866L13.4288 10.2866L13.4286 10.2867C13.222 10.4054 13.0131 10.5254 12.8015 10.6471ZM15.4542 4.21941L14.8499 4.56694C14.0163 5.04644 13.2106 5.50992 12.4017 5.96774C12.3335 6.00635 12.208 6.01475 12.1429 5.97798C11.3207 5.5131 10.5021 5.04181 9.65758 4.55562L9.65704 4.55532L9.06445 4.21426C9.33149 4.06068 9.59609 3.91197 9.8578 3.76487C10.4779 3.41632 11.0819 3.07686 11.6639 2.70348C12.1025 2.42195 12.4275 2.43656 12.8594 2.71252C13.4368 3.08146 14.0352 3.41797 14.6546 3.76633L14.6546 3.76633C14.9173 3.9141 15.1839 4.064 15.4542 4.21941ZM0.00112761 10.0343L0.481047 10.3106L0.482656 10.3115C0.851432 10.5239 1.19381 10.721 1.53641 10.9178C1.66944 10.9942 1.80288 11.0699 1.93631 11.1456L1.93648 11.1457C2.28411 11.3429 2.63169 11.5402 2.97191 11.7494C3.07232 11.8111 3.18387 11.9541 3.18529 12.0611C3.19767 12.9782 3.1953 13.8956 3.19292 14.8129V14.8129L3.1916 15.3706C3.19156 15.3909 3.18454 15.4112 3.17423 15.441L3.17423 15.4411C3.16824 15.4584 3.16114 15.4789 3.15366 15.5045C3.07188 15.4587 2.99121 15.4138 2.91138 15.3694L2.9111 15.3692L2.91106 15.3692C2.74232 15.2753 2.57734 15.1834 2.41354 15.0896L2.02144 14.8654L2.02137 14.8654C1.42668 14.5256 0.832022 14.1859 0.243368 13.8361C0.139551 13.7744 0.0129702 13.6387 0.011481 13.5356C-0.00146387 12.6457 -0.000480258 11.7556 0.000552769 10.8207C0.000838301 10.5623 0.00112761 10.3005 0.00112761 10.0343ZM15.9945 10.723C15.9945 10.5007 15.9946 10.2725 15.9946 10.0357C15.7658 10.1672 15.5406 10.2964 15.3181 10.424C14.5034 10.8912 13.7268 11.3367 12.9572 11.7939C12.8678 11.847 12.811 12.0224 12.8089 12.1423C12.799 12.7153 12.8002 13.2885 12.8014 13.8618C12.8017 14.0515 12.8021 14.2411 12.8021 14.4308V15.5022C12.8371 15.4894 12.8655 15.48 12.8892 15.4721C12.9297 15.4587 12.9569 15.4497 12.9812 15.4358C13.1568 15.3352 13.3326 15.2348 13.5084 15.1344C14.2726 14.6978 15.0368 14.2611 15.7933 13.8116C15.8959 13.7506 15.9813 13.5789 15.9877 13.4541C16.0039 13.1358 16.0006 12.8166 15.9973 12.4972C15.996 12.3703 15.9947 12.2434 15.9946 12.1165C15.9944 11.6612 15.9944 11.2059 15.9945 10.723Z" fill="white"/>
</svg>
